@startuml
interface IShaderVariantSettings {
}
abstract class "VolumeDebugSettings`1"<T> <<partial>> {
    + {static} ComponentDisplayName(component:Type) : string
    + {static} RegisterCamera(additionalCamera:T) : void
    + {static} UnRegisterCamera(additionalCamera:T) : void
}
class DebugManager <<sealed>> <<partial>> {
    + ToggleEditorUI(open:bool) : void
}
class ProbeTouchupVolume {
}
class VolumeManager <<sealed>> <<partial>> {
    + Register(volume:Volume, layer:int) : void
    + Unregister(volume:Volume, layer:int) : void
}
class "List`1"<T> {
}
"VolumeDebugSettings`1" --> "componentTypes<Type>" "List`1"
ProbeAdjustmentVolume <|-- ProbeTouchupVolume
@enduml
